PathFileType	4	(X/Y/Z)	c:/Users/goper/Files/vsCode/490R/osim_files/C15/C15_Static01.trc
DataRate	CameraRate	NumFrames	NumMarkers	Units                	OrigDataRate	OrigDataStartFrame	OrigNumFrames
250.00	250.00	9	36	mm	250.0	465	3717
                Frame#	Time	LPSIS			LASIS			LTH1			LTH2			LTH3			LTH4			LLFE			LMFE			LSH1			LSH2			LSH3			LSH4			LLMAL			LMMAL			LCAL			LMTP5			LTOE			LMTP1			RPSIS			RASIS			RTH1			RTH2			RTH3			RTH4			RLFE			RMFE			RSH1			RSH2			RSH3			RSH4			RLMAL			RMMAL			RCAL			RMTP1			RTOE			RMTP5		
		X1	Y1	Z1	X2	Y2	Z2	X3	Y3	Z3	X4	Y4	Z4	X5	Y5	Z5	X6	Y6	Z6	X7	Y7	Z7	X8	Y8	Z8	X9	Y9	Z9	X10	Y10	Z10	X11	Y11	Z11	X12	Y12	Z12	X13	Y13	Z13	X14	Y14	Z14	X15	Y15	Z15	X16	Y16	Z16	X17	Y17	Z17	X18	Y18	Z18	X19	Y19	Z19	X20	Y20	Z20	X21	Y21	Z21	X22	Y22	Z22	X23	Y23	Z23	X24	Y24	Z24	X25	Y25	Z25	X26	Y26	Z26	X27	Y27	Z27	X28	Y28	Z28	X29	Y29	Z29	X30	Y30	Z30	X31	Y31	Z31	X32	Y32	Z32	X33	Y33	Z33	X34	Y34	Z34	X35	Y35	Z35	X36	Y36	Z36

465	1.85600	-404.69864	1022.75800	441.23947	-243.51593	1005.46167	360.65527	-305.73196	626.15405	279.03119	-310.82690	579.93597	289.55035	-254.47583	629.07458	289.08597	-258.32932	583.57715	294.82077	-316.93195	500.81808	308.13837	-297.31476	476.55081	424.79688	-389.10464	395.85797	298.78375	-392.26172	352.50821	289.58105	-328.22809	389.49847	286.66638	-339.53464	346.38934	279.09689	-373.37512	88.01031	322.89233	-341.86157	103.79082	409.41794	-426.13358	57.38276	376.19040	-259.58163	36.77711	276.30206	-192.88277	58.08408	328.32654	-218.13710	38.73751	389.09814	-391.91403	1023.43646	559.22662	-230.74901	1007.94330	611.31287	-306.74835	646.65747	684.94202	-305.58444	600.27228	679.70251	-246.32066	642.17682	679.33203	-254.19606	594.95032	678.96368	-296.71136	498.33914	659.02216	-304.29163	473.49426	541.27148	-389.03879	398.73965	675.11548	-391.08838	356.76208	683.34326	-328.50400	388.37701	683.92786	-340.01822	348.39371	691.15887	-378.33179	86.45163	645.33441	-338.77957	101.84024	561.39124	-432.86829	57.50463	590.75311	-226.19107	38.13066	586.48480	-201.36954	55.44060	645.01068	-271.91705	31.01776	698.58862
466	1.86000	-404.63678	1022.72955	441.22714	-243.52840	1005.47083	360.64899	-305.70074	626.16119	279.03473	-310.83646	579.92212	289.59653	-254.45216	629.07837	289.08472	-258.34680	583.57898	294.80704	-316.91354	500.82849	308.13168	-297.31766	476.55090	424.78198	-389.09317	395.88583	298.81244	-392.26147	352.49863	289.60318	-328.18610	389.52267	286.65701	-339.52481	346.40479	279.09528	-373.36768	88.01623	322.91150	-341.87711	103.78102	409.43359	-426.13522	57.34892	376.21805	-259.68704	36.65685	276.38474	-192.90593	58.06228	328.34372	-218.14355	38.71590	389.11670	-391.88681	1023.44391	559.24115	-230.76614	1007.91846	611.31696	-306.70963	646.64825	684.95465	-305.54758	600.26154	679.71466	-246.29599	642.17877	679.32764	-254.16890	594.93054	678.97687	-296.75488	498.25946	659.00848	-304.56644	473.17712	541.43292	-389.02328	398.72382	675.12402	-391.04306	356.73145	683.36035	-328.49866	388.35040	683.93646	-340.02966	348.38242	691.17188	-378.32999	86.44553	645.36609	-338.78131	101.85259	561.37561	-432.37418	57.29679	590.73175	-226.23657	38.08725	586.52338	-201.41057	55.41046	645.05084	-271.90094	31.02299	698.58826
467	1.86400	-404.60797	1022.73383	441.23749	-243.48361	1005.47650	360.66354	-305.70245	626.16980	279.03702	-310.75272	579.97546	289.55090	-254.46771	629.08459	289.08484	-258.29498	583.59393	294.81781	-316.92133	500.84384	308.13708	-297.31577	476.55075	424.79901	-389.07925	395.89148	298.81387	-392.26376	352.51163	289.61572	-328.19302	389.51215	286.67081	-339.54758	346.40628	279.11716	-373.38214	88.01624	322.92029	-341.89896	103.78064	409.44772	-426.13403	57.37465	376.20163	-259.67557	36.66543	276.39859	-192.91214	58.04997	328.37259	-218.15324	38.73071	389.13257	-391.86288	1023.45093	559.24713	-230.72882	1007.89929	611.35071	-306.68253	646.63831	684.96704	-305.52606	600.25366	679.71899	-246.28249	642.15228	679.34875	-254.16624	594.92316	678.98199	-296.74994	498.24606	659.00635	-304.24545	473.49182	541.28119	-388.99405	398.70013	675.14478	-391.00851	356.72803	683.38708	-328.53384	388.32568	683.95349	-340.02704	348.36993	691.20245	-378.33237	86.43259	645.38074	-338.77502	101.86292	561.38159	-432.37616	57.29421	590.75720	-226.26810	38.06935	586.53442	-201.43602	55.40280	645.05286	-271.91299	31.01290	698.60950
468	1.86800	-404.60242	1022.72778	441.26080	-243.48232	1005.47626	360.66718	-305.70477	626.16907	279.05347	-310.77039	579.94794	289.58258	-254.45261	629.07684	289.10135	-258.30469	583.59741	294.81577	-316.92422	500.83911	308.14865	-297.30579	476.55191	424.80655	-389.04572	395.89746	298.83984	-392.24319	352.51230	289.63498	-328.14722	389.54779	286.67566	-339.52939	346.40814	279.12131	-373.39713	88.03711	322.91693	-341.87354	103.76456	409.46298	-426.15292	57.40538	376.23999	-259.68289	36.66449	276.40277	-192.93265	58.05349	328.36966	-218.17189	38.74540	389.14078	-391.79532	1023.45154	559.26947	-230.73367	1007.87561	611.34473	-306.68915	646.63257	684.97253	-305.48636	600.25482	679.72552	-246.25053	642.15704	679.35974	-254.14546	594.91345	678.99249	-296.73425	498.25467	659.02887	-304.21075	473.50638	541.27588	-388.96182	398.69907	675.16388	-391.00104	356.69464	683.39148	-328.50262	388.33408	683.98224	-340.00787	348.37009	691.21057	-378.36835	86.42757	645.39819	-338.78430	101.87167	561.38867	-432.34039	57.28003	590.75183	-226.26752	38.06478	586.55524	-201.44307	55.38417	645.08203	-271.92981	31.02767	698.62134
469	1.87200	-404.57361	1022.73804	441.27158	-243.45482	1005.48767	360.66937	-305.69644	626.18439	279.05615	-310.78397	579.91833	289.64511	-254.43768	629.07239	289.10107	-258.26593	583.61682	294.82425	-316.88412	500.84775	308.14359	-297.28415	476.54953	424.81424	-389.03607	395.90414	298.83682	-392.23834	352.50159	289.65048	-328.14832	389.54773	286.67700	-339.51392	346.42798	279.11945	-373.39725	88.03944	322.93356	-341.86963	103.78023	409.45038	-426.07950	57.35738	376.26773	-259.67245	36.66693	276.40588	-192.91548	58.06607	328.37589	-218.14856	38.75401	389.13943	-391.77057	1023.45404	559.27722	-230.64061	1007.90735	611.35583	-306.62149	646.65692	684.96057	-305.43039	600.25458	679.71344	-246.18456	642.16254	679.33850	-254.08629	594.91760	678.97510	-296.64758	498.29495	659.04962	-304.21350	473.50082	541.27332	-388.92657	398.69815	675.17871	-390.96024	356.70963	683.40851	-328.43622	388.35147	683.95209	-339.96130	348.36911	691.20099	-378.33206	86.45802	645.37213	-338.79651	101.86140	561.39490	-432.83670	57.46890	590.81525	-226.25667	38.08303	586.54260	-201.40472	55.41231	645.07520	-271.92163	31.04946	698.62787
470	1.87600	-404.52658	1022.72955	441.25308	-243.43837	1005.46582	360.65778	-305.67081	626.17480	279.06168	-310.82797	579.88519	289.67261	-254.43056	629.06171	289.09018	-258.25153	583.61469	294.81598	-316.88126	500.85117	308.15601	-297.26495	476.58774	424.81384	-389.00864	395.88919	298.87088	-392.21948	352.49759	289.64487	-328.17285	389.55704	286.69876	-339.50052	346.42593	279.12906	-373.40756	88.03761	322.93439	-341.85303	103.78531	409.45728	-426.07935	57.37548	376.29333	-259.69220	36.67014	276.39816	-192.91608	58.06713	328.36703	-218.15367	38.75125	389.14285	-391.69669	1023.44104	559.28589	-230.58855	1007.94000	611.34570	-306.57187	646.66437	684.95374	-305.38232	600.26733	679.71039	-246.13702	642.17712	679.32471	-254.02351	594.92249	678.96851	-296.57407	498.32330	659.04376	-304.47864	473.18698	541.43152	-388.88202	398.71115	675.19012	-390.90396	356.73535	683.42206	-328.39432	388.38101	683.96234	-339.90906	348.38120	691.19830	-378.32153	86.49417	645.40509	-338.78934	101.87873	561.39227	-432.29019	57.25574	590.77209	-226.26683	38.09399	586.54736	-201.40009	55.42537	645.08215	-271.91846	31.06009	698.62756
471	1.88000	-404.52560	1022.74963	441.27063	-243.41154	1005.48926	360.64136	-305.63556	626.19519	279.05206	-310.75952	579.86572	289.65933	-254.41376	629.08667	289.08884	-258.24994	583.62640	294.79849	-316.84839	500.85745	308.14319	-297.26016	476.58063	424.81024	-388.99274	395.88513	298.85217	-392.21466	352.50354	289.65317	-328.15869	389.55194	286.68463	-339.50253	346.44598	279.12799	-373.40585	88.05145	322.93112	-341.83820	103.80977	409.44348	-426.08646	57.35205	376.25568	-259.69165	36.68715	276.40286	-192.88939	58.09261	328.34341	-218.12010	38.77287	389.11780	-391.68338	1023.45129	559.28455	-230.53871	1007.95624	611.33301	-306.51730	646.67773	684.94818	-305.32794	600.27374	679.69684	-246.09300	642.19342	679.29291	-253.98602	594.93427	678.93945	-296.53540	498.34952	659.03296	-304.15875	473.50812	541.27667	-388.86871	398.71750	675.16760	-390.89786	356.75015	683.40430	-328.33145	388.41559	683.92383	-339.87888	348.39124	691.18024	-378.32004	86.51664	645.37915	-338.76703	101.89240	561.38043	-432.32629	57.29435	590.77124	-226.23819	38.12434	586.50964	-201.38824	55.45078	645.03674	-271.92606	31.07338	698.62231
472	1.88400	-404.48828	1022.74835	441.26953	-243.36392	1005.49896	360.64230	-305.62131	626.19531	279.05020	-310.72983	579.89227	289.64703	-254.40656	629.08228	289.08743	-258.22919	583.61407	294.78851	-316.83389	500.84467	308.14450	-297.23312	476.59564	424.81158	-388.99304	395.88605	298.84918	-392.20694	352.50748	289.63364	-328.14084	389.54984	286.68622	-339.50000	346.43576	279.11728	-373.38919	88.03969	322.92172	-341.83942	103.83272	409.42459	-426.12891	57.35574	376.27042	-259.60840	36.82786	276.30408	-192.89041	58.12233	328.30716	-218.11124	38.79155	389.09500	-391.64078	1023.47150	559.29004	-230.50102	1008.00452	611.32343	-306.49185	646.71112	684.93854	-305.34174	600.29626	679.67688	-246.05048	642.20447	679.27826	-253.95882	594.95624	678.92993	-296.52600	498.36218	658.99866	-304.11026	473.53079	541.23773	-388.86777	398.76108	675.17236	-390.87680	356.78217	683.39679	-328.29034	388.45300	683.91302	-339.82281	348.40588	691.16858	-378.30411	86.56470	645.35822	-338.76657	101.88419	561.36481	-432.82962	57.53918	590.77411	-226.23036	38.15338	586.49347	-201.36755	55.45013	645.01630	-271.93317	31.09418	698.60162
473	1.88800	-404.43491	1022.76001	441.25797	-243.35144	1005.47864	360.62750	-305.59570	626.18323	279.04422	-310.69812	579.89783	289.60440	-254.39264	629.07812	289.07510	-258.21802	583.60645	294.79437	-316.82758	500.85147	308.13956	-297.21173	476.59732	424.81018	-388.96912	395.86670	298.83521	-392.20178	352.51093	289.63489	-328.13428	389.53052	286.66275	-339.48196	346.42929	279.11798	-373.36893	88.03912	322.90671	-341.86197	103.83067	409.40543	-426.09610	57.33567	376.27075	-259.70428	36.67049	276.37933	-192.89400	58.14936	328.30481	-218.14243	38.79627	389.07782	-391.61618	1023.47015	559.28302	-230.45810	1008.03943	611.29993	-306.48337	646.71106	684.91016	-305.29288	600.32800	679.60535	-246.01338	642.22229	679.24414	-253.92500	594.96454	678.89691	-296.48138	498.42221	658.99908	-304.06900	473.53860	541.23334	-388.86960	398.78778	675.14917	-390.86609	356.80481	683.39642	-328.23975	388.49445	683.89563	-339.82455	348.42548	691.14435	-378.32428	86.59666	645.35333	-338.79391	101.88587	561.36536	-432.88437	57.61232	590.73724	-226.19583	38.18726	586.44269	-201.38644	55.46500	644.99957	-271.95761	31.10888	698.58264
